<svg id="Layer_1" data-name="Layer 1" xmlns="http://www.w3.org/2000/svg" viewBox="0 0 122.29 40"><defs><style>.cls-1{fill:#fff;}</style></defs><path d="M5.41,0H116.88a5.41,5.41,0,0,1,5.41,5.41V34.59A5.41,5.41,0,0,1,116.88,40H5.4A5.4,5.4,0,0,1,0,34.6H0V5.41A5.41,5.41,0,0,1,5.41,0Z"/><path class="cls-1" d="M21.12,6.84h-10A2.16,2.16,0,0,0,9,9V31.07a2.16,2.16,0,0,0,2.16,2.16h10a2.16,2.16,0,0,0,2.16-2.16V9a2.16,2.16,0,0,0-2.16-2.16Zm-5,24.8a1.44,1.44,0,1,1,1.44-1.44,1.43,1.43,0,0,1-1.44,1.44h0Zm5.44-3.58H10.69V11.79H21.58Z"/><path class="cls-1" d="M31.44,10.77l-.61,1.84h-.77l2-5.83H33l2,5.83h-.8l-.62-1.84Zm1.91-.58-.58-1.68c-.12-.38-.21-.73-.29-1.07h0c-.08.34-.17.7-.28,1.06l-.57,1.69Z"/><path class="cls-1" d="M35.71,8.42l.82,2.35a8,8,0,0,1,.34,1.08h0c.1-.37.22-.73.35-1.08L38,8.42h.79l-1.64,4.19h-.73L34.9,8.42Z"/><path class="cls-1" d="M42.36,11.6a8.39,8.39,0,0,0,.06,1h-.68l-.07-.53h0a1.56,1.56,0,0,1-1.28.62,1.19,1.19,0,0,1-1.28-1.1v-.1c0-1,.9-1.57,2.51-1.56V9.86a.86.86,0,0,0-.69-1,.81.81,0,0,0-.31,0,2,2,0,0,0-1.1.31l-.17-.51a2.69,2.69,0,0,1,1.38-.36c1.29,0,1.6.87,1.6,1.71Zm-.74-1.13c-.83,0-1.77.13-1.77.94a.68.68,0,0,0,.61.73h.1a1.07,1.07,0,0,0,1-.7,1,1,0,0,0,0-.24Z"/><path class="cls-1" d="M43.9,7.65a.47.47,0,0,1-.47-.47v0a.49.49,0,1,1,.49.49h0Zm-.36,5V8.42h.76v4.19Z"/><path class="cls-1" d="M45.52,6.47h.76v6.14h-.76Z"/><path class="cls-1" d="M50.45,11.6a8.39,8.39,0,0,0,.06,1h-.68l-.07-.53h0a1.54,1.54,0,0,1-1.28.62,1.19,1.19,0,0,1-1.28-1.1v-.1c0-1,.9-1.57,2.52-1.56V9.86a.85.85,0,0,0-.7-1,.7.7,0,0,0-.25,0,2,2,0,0,0-1.1.31l-.17-.51a2.69,2.69,0,0,1,1.38-.36c1.29,0,1.6.87,1.6,1.71Zm-.74-1.13c-.83,0-1.78.13-1.78.94a.68.68,0,0,0,.61.73h.1a1.06,1.06,0,0,0,1-.7,1,1,0,0,0,0-.24Z"/><path class="cls-1" d="M51.63,6.47h.76V9.09h0a1.53,1.53,0,0,1,1.42-.76,1.87,1.87,0,0,1,1.78,2,.76.76,0,0,1,0,.15,2,2,0,0,1-1.73,2.24h-.16a1.5,1.5,0,0,1-1.4-.78h0v.69h-.66V6.47Zm.76,4.46v.28a1.2,1.2,0,0,0,1.15.89c.8,0,1.27-.65,1.27-1.61s-.44-1.57-1.25-1.57a1.21,1.21,0,0,0-1.15.94,1.71,1.71,0,0,0,0,.32Z"/><path class="cls-1" d="M56.5,6.47h.77v6.14H56.5Z"/><path class="cls-1" d="M58.92,10.64a1.34,1.34,0,0,0,1.19,1.46h.23a2.88,2.88,0,0,0,1.16-.21l.14.54a3.52,3.52,0,0,1-1.4.26,2,2,0,0,1-2.06-1.94v-.17A2,2,0,0,1,59.9,8.34a1.32,1.32,0,0,1,.28,0,1.76,1.76,0,0,1,1.74,1.79,1.48,1.48,0,0,1,0,.21,2.16,2.16,0,0,1,0,.36Zm2.22-.54a1.09,1.09,0,0,0-.93-1.23h-.07A1.26,1.26,0,0,0,59,10.1Z"/><path class="cls-1" d="M66.27,12.7a2,2,0,0,1-2-2c0-.06,0-.11,0-.16a2,2,0,0,1,1.87-2.21h.21a2,2,0,0,1,2,2,.65.65,0,0,1,0,.14,2,2,0,0,1-1.75,2.22h-.33Zm0-.57c.73,0,1.28-.68,1.28-1.63,0-.71-.36-1.6-1.26-1.6S65,9.73,65,10.52s.52,1.61,1.26,1.61Z"/><path class="cls-1" d="M69.27,9.55V8.42H70V9.1h0a1.56,1.56,0,0,1,1.38-.77c.58,0,1.48.34,1.48,1.78v2.5h-.76V10.19c0-.67-.25-1.24-1-1.24a1.09,1.09,0,0,0-1,.78,1,1,0,0,0,0,.35v2.53h-.76Z"/><path class="cls-1" d="M76.73,7.42v1h1.09V9H76.73v2.26c0,.52.15.81.57.81a1.73,1.73,0,0,0,.45-.05v.58a2.18,2.18,0,0,1-.67.1,1.08,1.08,0,0,1-.83-.32,1.65,1.65,0,0,1-.29-1.1V9h-.65V8.42H76V7.65Z"/><path class="cls-1" d="M78.64,6.47h.76V9.08h0a1.36,1.36,0,0,1,.6-.54,1.43,1.43,0,0,1,.78-.21c.56,0,1.46.34,1.46,1.79v2.49h-.76V10.2c0-.68-.25-1.24-1-1.24a1.09,1.09,0,0,0-1,.76,1.09,1.09,0,0,0,0,.36v2.53h-.76Z"/><path class="cls-1" d="M83.82,10.64A1.34,1.34,0,0,0,85,12.1h.22a2.88,2.88,0,0,0,1.16-.21l.14.54a3.52,3.52,0,0,1-1.4.26,2,2,0,0,1-2.06-1.94v-.17a2,2,0,0,1,1.72-2.24,1.32,1.32,0,0,1,.28,0,1.76,1.76,0,0,1,1.74,1.78,1.5,1.5,0,0,1,0,.22,2.16,2.16,0,0,1,0,.36Zm2.23-.54a1.09,1.09,0,0,0-.93-1.23h-.07a1.27,1.27,0,0,0-1.17,1.24Z"/><path class="cls-1" d="M89.84,7.65a.47.47,0,0,1-.48-.46v0a.47.47,0,0,1,.47-.49h0a.5.5,0,0,1,0,1Zm-.37,5V8.42h.76v4.19Z"/><path class="cls-1" d="M91.48,6.86a7.71,7.71,0,0,1,1.44-.13,2.42,2.42,0,0,1,1.64.49,1.61,1.61,0,0,1,.52,1.22,1.67,1.67,0,0,1-.46,1.24,2.38,2.38,0,0,1-1.78.64,2.51,2.51,0,0,1-.61-.05v2.34h-.75Zm.75,2.8a3.18,3.18,0,0,0,.62.06c.92,0,1.47-.45,1.47-1.24s-.55-1.15-1.38-1.15a4.17,4.17,0,0,0-.71.06Z"/><path class="cls-1" d="M96,6.47h.76V9.08h0a1.28,1.28,0,0,1,.54-.54,1.55,1.55,0,0,1,.78-.21c.56,0,1.46.34,1.46,1.79v2.49h-.76V10.2c0-.68-.25-1.24-1-1.24a1.09,1.09,0,0,0-1,.76,1.09,1.09,0,0,0,0,.36v2.53H96Z"/><path class="cls-1" d="M102.43,12.7a2,2,0,0,1-2-2c0-.06,0-.11,0-.16a2,2,0,0,1,1.87-2.21h.21a2,2,0,0,1,2,2,.65.65,0,0,1,0,.14,2,2,0,0,1-1.75,2.22h-.33Zm0-.57c.72,0,1.27-.68,1.27-1.63,0-.71-.36-1.6-1.26-1.6s-1.28.83-1.28,1.62.52,1.61,1.26,1.61Z"/><path class="cls-1" d="M105.43,9.55V8.42h.67V9.1h0a1.56,1.56,0,0,1,1.38-.77c.58,0,1.48.34,1.48,1.78v2.5h-.76V10.19c0-.67-.25-1.24-1-1.24a1.09,1.09,0,0,0-1,.78,1,1,0,0,0,0,.35v2.53h-.76Z"/><path class="cls-1" d="M110.62,10.64a1.34,1.34,0,0,0,1.21,1.46h.22a2.83,2.83,0,0,0,1.15-.21l.14.54a3.52,3.52,0,0,1-1.4.26,2,2,0,0,1-2.06-1.94v-.17a2,2,0,0,1,1.72-2.24,1.32,1.32,0,0,1,.28,0,1.76,1.76,0,0,1,1.73,1.8,1.27,1.27,0,0,1,0,.2,2.16,2.16,0,0,1,0,.36Zm2.22-.54a1.09,1.09,0,0,0-.93-1.23h-.07a1.27,1.27,0,0,0-1.17,1.24Z"/><path class="cls-1" d="M35,16.56,29.89,31.65h2.35L33.77,27h5l1.57,4.63h2.42L37.58,16.56ZM36.24,19c.17.67.36,1.37.6,2.13l1.38,4H34.29l1.36-4C35.86,20.49,36.06,19.78,36.24,19Z"/><path class="cls-1" d="M49.36,20.47a4.28,4.28,0,0,0-3.63,1.74l-.09-1.5H43.55v.19c.06.94.08,2,.08,3.45V36h2.29V30.55A4,4,0,0,0,49,31.89a4.71,4.71,0,0,0,3.46-1.47A6.23,6.23,0,0,0,54.05,26a6,6,0,0,0-1.33-4A4.35,4.35,0,0,0,49.36,20.47Zm-.57,1.89c2,0,3,1.89,3,3.76,0,2.41-1.16,3.9-3,3.9A2.76,2.76,0,0,1,46,27.9a2.63,2.63,0,0,1-.08-.74V25.33a3.7,3.7,0,0,1,.07-.57v-.18A2.9,2.9,0,0,1,48.79,22.36Z"/><path class="cls-1" d="M61.13,20.47a4.3,4.3,0,0,0-3.64,1.74l-.09-1.5H55.31v.19c.06.94.08,2,.08,3.45V36H57.7V30.55a4,4,0,0,0,3.12,1.34,4.71,4.71,0,0,0,3.46-1.47A6.26,6.26,0,0,0,65.81,26a6,6,0,0,0-1.33-4A4.35,4.35,0,0,0,61.13,20.47Zm-.57,1.89c2,0,2.94,1.89,2.94,3.76,0,2.41-1.16,3.9-3,3.9a2.77,2.77,0,0,1-2.69-2.12,3.05,3.05,0,0,1-.08-.74V25.33a3.7,3.7,0,0,1,.07-.57v-.18A2.89,2.89,0,0,1,60.56,22.36Z"/><path class="cls-1" d="M75.86,23C73.73,22.13,73,21.48,73,20.28c0-1,.81-2,2.6-2a5.23,5.23,0,0,1,2.68.67l.2.12.64-1.9L79,17.06a6.71,6.71,0,0,0-3.32-.74c-2.92,0-5,1.72-5,4.18,0,2,1.27,3.37,4,4.36,1.94.73,2.66,1.47,2.66,2.74,0,1.44-1.11,2.34-2.9,2.34a6.2,6.2,0,0,1-3.3-.94L71,28.88l-.62,1.95.12.07a7.73,7.73,0,0,0,3.85,1c3.93,0,5.32-2.39,5.32-4.44S78.6,24,75.86,23Z"/><path class="cls-1" d="M83.82,18.11l-2.24.7v1.9H79.94v1.83h1.64v5.59A4.26,4.26,0,0,0,82.37,31a2.94,2.94,0,0,0,2.21.87,5.32,5.32,0,0,0,1.77-.27l.13-.05-.11-1.82-.22.06a3.43,3.43,0,0,1-1.06.13c-.89,0-1.27-.56-1.27-1.88v-5.5h2.76V20.71H83.82Z"/><path class="cls-1" d="M92.24,20.47c-3.2,0-5.43,2.38-5.43,5.8s2.16,5.62,5.25,5.62h0c2.61,0,5.42-1.82,5.42-5.82a5.81,5.81,0,0,0-1.45-4A5.11,5.11,0,0,0,92.24,20.47Zm-.07,1.8c2.06,0,3,2,3,3.87,0,2.29-1.27,3.95-3,3.95h0c-1.73,0-3-1.63-3-3.89C89.12,24.25,90.06,22.27,92.17,22.27Z"/><path class="cls-1" d="M104.51,20.58h-.14a2.22,2.22,0,0,0-.57-.07,3.27,3.27,0,0,0-2.86,1.84l-.07-1.6H98.82v.19c.06.91.08,1.92.08,3.29v7.46h2.29V25.83a6.51,6.51,0,0,1,.06-.88,2.53,2.53,0,0,1,2.4-2.31c.2,0,.41,0,.61,0h.25Z"/><path class="cls-1" d="M109.64,20.45c-3,0-5.16,2.43-5.16,5.91s2.11,5.51,5.38,5.51a8.84,8.84,0,0,0,3.62-.69l.14-.07-.44-1.7-.19.08a7.22,7.22,0,0,1-2.87.51,3.18,3.18,0,0,1-3.41-2.93,2.38,2.38,0,0,1,0-.38h7.38v-.14a5.6,5.6,0,0,0,.06-1C114.17,23.23,113,20.45,109.64,20.45Zm-.15,1.74a2.25,2.25,0,0,1,1.68.64A3.17,3.17,0,0,1,112,25h-5.2A2.9,2.9,0,0,1,109.49,22.19Z"/></svg>