<?xml version="1.0" encoding="utf-8"?>
<!-- Generator: Adobe Illustrator 25.0.0, SVG Export Plug-In . SVG Version: 6.00 Build 0)  -->
<svg version="1.1" id="Layer_1" xmlns="http://www.w3.org/2000/svg" xmlns:xlink="http://www.w3.org/1999/xlink" x="0px" y="0px"
	 viewBox="0 0 122.3 40" style="enable-background:new 0 0 122.3 40;" xml:space="preserve">
<style type="text/css">
	.st0{fill:#A7A9AC;}
	.st1{fill:#FFFFFF;}
</style>
<path class="st0" d="M5.4,0h111.5c3,0,5.4,2.4,5.4,5.4v29.2c0,3-2.4,5.4-5.4,5.4H5.4c-3,0-5.4-2.4-5.4-5.4c0,0,0,0,0,0V5.4
	C0,2.4,2.4,0,5.4,0z"/>
<path class="st1" d="M21.1,6.8h-10C9.9,6.9,9,7.8,9,9v22.1c0,1.2,1,2.2,2.2,2.2h10c1.2,0,2.2-1,2.2-2.2V9
	C23.3,7.8,22.4,6.8,21.1,6.8C21.1,6.8,21.1,6.8,21.1,6.8z M16.1,31.6c-0.8,0-1.4-0.6-1.4-1.4s0.6-1.4,1.4-1.4c0.8,0,1.4,0.6,1.4,1.4
	C17.6,31,16.9,31.6,16.1,31.6C16.1,31.6,16.1,31.6,16.1,31.6L16.1,31.6z M21.6,28.1H10.7V11.8h10.9L21.6,28.1z"/>
<path class="st1" d="M31.4,10.8l-0.6,1.8h-0.8l2-5.8H33l2,5.8h-0.8l-0.6-1.8H31.4z M33.4,10.2l-0.6-1.7c-0.1-0.4-0.2-0.7-0.3-1.1
	l0,0c-0.1,0.3-0.2,0.7-0.3,1.1l-0.6,1.7H33.4z"/>
<path class="st1" d="M35.7,8.4l0.8,2.4c0.1,0.4,0.2,0.7,0.3,1.1l0,0c0.1-0.4,0.2-0.7,0.3-1.1L38,8.4h0.8l-1.6,4.2h-0.7l-1.6-4.2
	H35.7z"/>
<path class="st1" d="M42.4,11.6c0,0.3,0,0.7,0.1,1h-0.7l-0.1-0.5l0,0c-0.3,0.4-0.8,0.6-1.3,0.6c-0.7,0-1.2-0.4-1.3-1.1
	c0,0,0-0.1,0-0.1c0-1,0.9-1.6,2.5-1.6V9.9c0.1-0.5-0.2-0.9-0.7-1c-0.1,0-0.2,0-0.3,0c-0.4,0-0.8,0.1-1.1,0.3l-0.2-0.5
	c0.4-0.2,0.9-0.4,1.4-0.4c1.3,0,1.6,0.9,1.6,1.7L42.4,11.6z M41.6,10.5c-0.8,0-1.8,0.1-1.8,0.9c0,0.4,0.2,0.7,0.6,0.7
	c0,0,0.1,0,0.1,0c0.4,0,0.8-0.3,1-0.7c0-0.1,0-0.2,0-0.2L41.6,10.5z"/>
<path class="st1" d="M43.9,7.7c-0.3,0-0.5-0.2-0.5-0.5c0,0,0,0,0,0c0-0.3,0.2-0.5,0.5-0.5c0.3,0,0.5,0.2,0.5,0.5S44.2,7.7,43.9,7.7
	C43.9,7.7,43.9,7.7,43.9,7.7L43.9,7.7z M43.5,12.6V8.4h0.8v4.2L43.5,12.6z"/>
<path class="st1" d="M45.5,6.5h0.8v6.1h-0.8V6.5z"/>
<path class="st1" d="M50.5,11.6c0,0.3,0,0.7,0.1,1h-0.7l-0.1-0.5l0,0c-0.3,0.4-0.8,0.6-1.3,0.6c-0.7,0-1.2-0.4-1.3-1.1
	c0,0,0-0.1,0-0.1c0-1,0.9-1.6,2.5-1.6V9.9c0.1-0.5-0.2-0.9-0.7-1c-0.1,0-0.2,0-0.2,0c-0.4,0-0.8,0.1-1.1,0.3l-0.2-0.5
	c0.4-0.2,0.9-0.4,1.4-0.4c1.3,0,1.6,0.9,1.6,1.7L50.5,11.6z M49.7,10.5c-0.8,0-1.8,0.1-1.8,0.9c0,0.4,0.2,0.7,0.6,0.7
	c0,0,0.1,0,0.1,0c0.4,0,0.8-0.3,1-0.7c0-0.1,0-0.2,0-0.2L49.7,10.5z"/>
<path class="st1" d="M51.6,6.5h0.8v2.6l0,0c0.3-0.5,0.8-0.8,1.4-0.8c1,0.1,1.8,0.9,1.8,2c0,0,0,0.1,0,0.1c0.1,1.1-0.6,2.1-1.7,2.2
	c-0.1,0-0.1,0-0.2,0c-0.6,0-1.1-0.3-1.4-0.8l0,0v0.7h-0.7c0-0.3,0-0.7,0-1.1L51.6,6.5z M52.4,10.9c0,0.1,0,0.2,0,0.3
	c0.1,0.5,0.6,0.9,1.2,0.9c0.8,0,1.3-0.6,1.3-1.6s-0.4-1.6-1.2-1.6c-0.6,0-1,0.4-1.2,0.9c0,0.1,0,0.2,0,0.3L52.4,10.9z"/>
<path class="st1" d="M56.5,6.5h0.8v6.1h-0.8V6.5z"/>
<path class="st1" d="M58.9,10.6c-0.1,0.7,0.5,1.4,1.2,1.5c0.1,0,0.2,0,0.2,0c0.4,0,0.8-0.1,1.2-0.2l0.1,0.5
	c-0.4,0.2-0.9,0.3-1.4,0.3c-1.1,0-2-0.8-2.1-1.9c0-0.1,0-0.1,0-0.2c-0.1-1.1,0.6-2.1,1.7-2.2c0.1,0,0.2,0,0.3,0c1,0,1.8,0.8,1.7,1.8
	c0,0.1,0,0.1,0,0.2c0,0.1,0,0.2,0,0.4L58.9,10.6z M61.1,10.1c0.1-0.6-0.3-1.1-0.9-1.2c0,0,0,0-0.1,0C59.5,8.9,59,9.4,59,10.1H61.1z"
	/>
<path class="st1" d="M66.3,12.7c-1.1,0-2-0.9-2-2c0-0.1,0-0.1,0-0.2c-0.1-1.1,0.7-2.1,1.9-2.2c0.1,0,0.1,0,0.2,0c1.1,0,2,0.9,2,2
	c0,0,0,0.1,0,0.1c0.1,1.1-0.7,2.1-1.8,2.2C66.5,12.7,66.4,12.7,66.3,12.7L66.3,12.7z M66.3,12.1c0.7,0,1.3-0.7,1.3-1.6
	c0-0.7-0.4-1.6-1.3-1.6S65,9.7,65,10.5S65.5,12.1,66.3,12.1L66.3,12.1z"/>
<path class="st1" d="M69.3,9.6c0-0.4,0-0.8,0-1.1h0.7v0.7l0,0c0.3-0.5,0.8-0.8,1.4-0.8c0.6,0,1.5,0.3,1.5,1.8v2.5H72v-2.4
	c0-0.7-0.2-1.2-1-1.2c-0.5,0-0.9,0.3-1,0.8c0,0.1,0,0.2,0,0.4v2.5h-0.8L69.3,9.6z"/>
<path class="st1" d="M76.7,7.4v1h1.1V9h-1.1v2.3c0,0.5,0.2,0.8,0.6,0.8c0.2,0,0.3,0,0.4-0.1v0.6c-0.2,0.1-0.4,0.1-0.7,0.1
	c-0.3,0-0.6-0.1-0.8-0.3c-0.2-0.3-0.3-0.7-0.3-1.1V9h-0.7V8.4H76V7.7L76.7,7.4z"/>
<path class="st1" d="M78.6,6.5h0.8v2.6l0,0c0.1-0.2,0.3-0.4,0.6-0.5c0.2-0.1,0.5-0.2,0.8-0.2c0.6,0,1.5,0.3,1.5,1.8v2.5h-0.8v-2.4
	c0-0.7-0.2-1.2-1-1.2c-0.5,0-0.9,0.3-1,0.8c0,0.1,0,0.2,0,0.4v2.5h-0.8L78.6,6.5z"/>
<path class="st1" d="M83.8,10.6c-0.1,0.7,0.5,1.4,1.2,1.5c0.1,0,0.1,0,0.2,0c0.4,0,0.8-0.1,1.2-0.2l0.1,0.5
	c-0.4,0.2-0.9,0.3-1.4,0.3c-1.1,0-2-0.8-2.1-1.9c0-0.1,0-0.1,0-0.2c-0.1-1.1,0.6-2.1,1.7-2.2c0.1,0,0.2,0,0.3,0c1,0,1.7,0.8,1.7,1.8
	c0,0.1,0,0.1,0,0.2c0,0.1,0,0.2,0,0.4L83.8,10.6z M86.1,10.1c0.1-0.6-0.3-1.1-0.9-1.2c0,0,0,0-0.1,0c-0.7,0-1.2,0.6-1.2,1.2H86.1z"
	/>
<path class="st1" d="M89.8,7.7c-0.3,0-0.5-0.2-0.5-0.5c0,0,0,0,0,0c0-0.3,0.2-0.5,0.5-0.5c0,0,0,0,0,0c0.3,0,0.5,0.2,0.5,0.5
	S90.1,7.7,89.8,7.7L89.8,7.7z M89.5,12.6V8.4h0.8v4.2L89.5,12.6z"/>
<path class="st1" d="M91.5,6.9c0.5-0.1,1-0.1,1.4-0.1c0.6,0,1.2,0.1,1.6,0.5c0.3,0.3,0.5,0.8,0.5,1.2c0,0.5-0.1,0.9-0.5,1.2
	c-0.5,0.4-1.1,0.7-1.8,0.6c-0.2,0-0.4,0-0.6-0.1v2.3h-0.8V6.9z M92.2,9.7c0.2,0,0.4,0.1,0.6,0.1c0.9,0,1.5-0.4,1.5-1.2
	s-0.6-1.2-1.4-1.2c-0.2,0-0.5,0-0.7,0.1L92.2,9.7z"/>
<path class="st1" d="M96,6.5h0.8v2.6l0,0c0.1-0.2,0.3-0.4,0.5-0.5c0.2-0.1,0.5-0.2,0.8-0.2c0.6,0,1.5,0.3,1.5,1.8v2.5h-0.8v-2.4
	c0-0.7-0.2-1.2-1-1.2c-0.5,0-0.9,0.3-1,0.8c0,0.1,0,0.2,0,0.4v2.5H96V6.5z"/>
<path class="st1" d="M102.4,12.7c-1.1,0-2-0.9-2-2c0-0.1,0-0.1,0-0.2c-0.1-1.1,0.7-2.1,1.9-2.2c0.1,0,0.1,0,0.2,0c1.1,0,2,0.9,2,2
	c0,0,0,0.1,0,0.1c0.1,1.1-0.7,2.1-1.8,2.2C102.7,12.7,102.5,12.7,102.4,12.7L102.4,12.7z M102.4,12.1c0.7,0,1.3-0.7,1.3-1.6
	c0-0.7-0.4-1.6-1.3-1.6s-1.3,0.8-1.3,1.6S101.7,12.1,102.4,12.1L102.4,12.1z"/>
<path class="st1" d="M105.4,9.6c0-0.4,0-0.8,0-1.1h0.7v0.7l0,0c0.3-0.5,0.8-0.8,1.4-0.8c0.6,0,1.5,0.3,1.5,1.8v2.5h-0.8v-2.4
	c0-0.7-0.2-1.2-1-1.2c-0.5,0-0.9,0.3-1,0.8c0,0.1,0,0.2,0,0.4v2.5h-0.8L105.4,9.6z"/>
<path class="st1" d="M110.6,10.6c-0.1,0.7,0.5,1.4,1.2,1.5c0.1,0,0.1,0,0.2,0c0.4,0,0.8-0.1,1.2-0.2l0.1,0.5
	c-0.4,0.2-0.9,0.3-1.4,0.3c-1.1,0-2-0.8-2.1-1.9c0-0.1,0-0.1,0-0.2c-0.1-1.1,0.6-2.1,1.7-2.2c0.1,0,0.2,0,0.3,0c1,0,1.8,0.8,1.7,1.8
	c0,0.1,0,0.1,0,0.2c0,0.1,0,0.2,0,0.4L110.6,10.6z M112.8,10.1c0.1-0.6-0.3-1.1-0.9-1.2c0,0,0,0-0.1,0c-0.7,0-1.2,0.6-1.2,1.2H112.8
	z"/>
<path class="st1" d="M35,16.6l-5.1,15.1h2.3l1.5-4.6h5l1.6,4.6h2.4l-5.2-15.1H35z M36.2,19c0.2,0.7,0.4,1.4,0.6,2.1l1.4,4h-3.9
	l1.4-4C35.9,20.5,36.1,19.8,36.2,19z"/>
<path class="st1" d="M49.4,20.5c-1.4-0.1-2.8,0.6-3.6,1.7l-0.1-1.5h-2.1v0.2c0.1,0.9,0.1,2,0.1,3.5V36h2.3v-5.5
	c0.8,0.9,1.9,1.4,3.1,1.3c1.3,0,2.6-0.5,3.5-1.5c1.1-1.2,1.6-2.8,1.5-4.4c0-1.4-0.4-2.9-1.3-4C51.9,21,50.7,20.5,49.4,20.5z
	 M48.8,22.4c2,0,3,1.9,3,3.8c0,2.4-1.2,3.9-3,3.9c-1.3,0-2.5-0.8-2.8-2.1c-0.1-0.2-0.1-0.5-0.1-0.7v-1.8c0-0.2,0-0.4,0.1-0.6v-0.2
	C46.3,23.3,47.5,22.4,48.8,22.4z"/>
<path class="st1" d="M61.1,20.5c-1.4-0.1-2.8,0.6-3.6,1.7l-0.1-1.5h-2.1v0.2c0.1,0.9,0.1,2,0.1,3.5V36h2.3v-5.5
	c0.8,0.9,1.9,1.4,3.1,1.3c1.3,0,2.6-0.5,3.5-1.5c1.1-1.2,1.6-2.8,1.5-4.4c0-1.4-0.4-2.9-1.3-4C63.6,21,62.4,20.5,61.1,20.5z
	 M60.6,22.4c2,0,2.9,1.9,2.9,3.8c0,2.4-1.2,3.9-3,3.9c-1.3,0-2.4-0.9-2.7-2.1c-0.1-0.2-0.1-0.5-0.1-0.7v-1.8c0-0.2,0-0.4,0.1-0.6
	v-0.2C58.1,23.3,59.2,22.4,60.6,22.4z"/>
<path class="st1" d="M75.9,23c-2.1-0.9-2.9-1.5-2.9-2.7c0-1,0.8-2,2.6-2c0.9,0,1.9,0.2,2.7,0.7l0.2,0.1l0.6-1.9L79,17.1
	c-1-0.5-2.2-0.8-3.3-0.7c-2.9,0-4.9,1.7-4.9,4.2c0,2,1.3,3.4,4,4.4c1.9,0.7,2.7,1.5,2.7,2.7c0,1.4-1.1,2.3-2.9,2.3
	c-1.2,0-2.3-0.3-3.3-0.9L71,28.9l-0.6,2l0.1,0.1c1.2,0.7,2.5,1,3.8,1c3.9,0,5.3-2.4,5.3-4.4S78.6,24,75.9,23z"/>
<path class="st1" d="M83.8,18.1l-2.2,0.7v1.9h-1.6v1.8h1.6v5.6c-0.1,1,0.2,2,0.8,2.9c0.6,0.6,1.4,0.9,2.2,0.9c0.6,0,1.2-0.1,1.8-0.3
	l0.1,0l-0.1-1.8l-0.2,0.1c-0.3,0.1-0.7,0.1-1.1,0.1c-0.9,0-1.3-0.6-1.3-1.9v-5.5h2.8v-1.8h-2.8V18.1z"/>
<path class="st1" d="M92.2,20.5c-3.2,0-5.4,2.4-5.4,5.8s2.2,5.6,5.2,5.6l0,0c2.6,0,5.4-1.8,5.4-5.8c0-1.5-0.5-2.9-1.4-4
	C95,21,93.7,20.4,92.2,20.5z M92.2,22.3c2.1,0,3,2,3,3.9c0,2.3-1.3,4-3,4l0,0c-1.7,0-3-1.6-3-3.9C89.1,24.2,90.1,22.3,92.2,22.3z"/>
<path class="st1" d="M104.5,20.6h-0.1c-0.2,0-0.4-0.1-0.6-0.1c-1.2,0-2.3,0.7-2.9,1.8l-0.1-1.6h-2.1v0.2c0.1,0.9,0.1,1.9,0.1,3.3
	v7.5h2.3v-5.9c0-0.3,0-0.6,0.1-0.9c0.1-1.3,1.1-2.2,2.4-2.3c0.2,0,0.4,0,0.6,0h0.2V20.6z"/>
<path class="st1" d="M109.6,20.5c-3,0-5.2,2.4-5.2,5.9s2.1,5.5,5.4,5.5c1.2,0,2.5-0.2,3.6-0.7l0.1-0.1l-0.4-1.7l-0.2,0.1
	c-0.9,0.4-1.9,0.5-2.9,0.5c-1.8,0.1-3.3-1.2-3.4-2.9c0-0.1,0-0.3,0-0.4h7.4v-0.1c0-0.3,0.1-0.7,0.1-1
	C114.2,23.2,113,20.5,109.6,20.5z M109.5,22.2c0.6,0,1.2,0.2,1.7,0.6c0.5,0.6,0.8,1.4,0.8,2.2h-5.2C106.8,23.5,108,22.3,109.5,22.2z
	"/>
</svg>
