<svg id="Layer_1" data-name="Layer 1" xmlns="http://www.w3.org/2000/svg" xmlns:xlink="http://www.w3.org/1999/xlink" viewBox="0 0 122.29 40"><defs><style>.cls-1{fill:none;}.cls-2{clip-path:url(#clip-path);}.cls-3{fill:url(#linear-gradient);}.cls-4{fill:url(#linear-gradient-2);}.cls-5{fill:url(#linear-gradient-3);}.cls-6{fill:url(#linear-gradient-4);}.cls-7{fill:#f9f9f9;}.cls-8{fill:#f9f9fa;}</style><clipPath id="clip-path"><path class="cls-1" d="M26.5,17.5,21,14.32,10.35,8.18c-.59-.34-1.18-.14-1.18.58v25c0,.54.42.77.94.47L21,28l5.51-3.18,5.3-3.06c.62-.36.56-.85,0-1.14S26.5,17.5,26.5,17.5Z"/></clipPath><linearGradient id="linear-gradient" x1="16" y1="34.4" x2="16" y2="7.32" gradientTransform="matrix(1, 0, 0, -1, 0, 42)" gradientUnits="userSpaceOnUse"><stop offset="0" stop-color="#257cb0"/><stop offset="0.21" stop-color="#3c8fb3"/><stop offset="0.74" stop-color="#73bdba"/><stop offset="1" stop-color="#89cfbd"/></linearGradient><linearGradient id="linear-gradient-2" x1="9.17" y1="27.68" x2="26.5" y2="27.68" gradientTransform="matrix(1, 0, 0, -1, 0, 42)" gradientUnits="userSpaceOnUse"><stop offset="0" stop-color="#52c1ad"/><stop offset="1" stop-color="#dee89a"/></linearGradient><linearGradient id="linear-gradient-3" x1="17.84" y1="20.86" x2="17.84" y2="7.22" gradientTransform="matrix(1, 0, 0, -1, 0, 42)" gradientUnits="userSpaceOnUse"><stop offset="0" stop-color="#ec413d"/><stop offset="0.19" stop-color="#d74352"/><stop offset="0.74" stop-color="#a04888"/><stop offset="1" stop-color="#8a4a9d"/></linearGradient><linearGradient id="linear-gradient-4" x1="27.81" y1="24.5" x2="27.81" y2="17.22" gradientTransform="matrix(1, 0, 0, -1, 0, 42)" gradientUnits="userSpaceOnUse"><stop offset="0" stop-color="#f58879"/><stop offset="0.62" stop-color="#fbb276"/><stop offset="1" stop-color="#fec874"/></linearGradient></defs><path d="M5.41,0H116.88a5.41,5.41,0,0,1,5.41,5.41V34.59A5.41,5.41,0,0,1,116.88,40H5.4A5.4,5.4,0,0,1,0,34.6H0V5.41A5.41,5.41,0,0,1,5.41,0Z"/><g id="PLAY"><g class="cls-2"><polygon class="cls-3" points="9.17 7.6 9.17 21.14 9.17 34.68 22.83 21.14 9.17 7.6"/><polygon class="cls-4" points="26.5 17.5 20.99 14.32 9.17 7.5 9.17 7.6 22.83 21.14 26.5 17.5"/><polygon class="cls-5" points="9.17 34.68 9.17 34.78 20.99 27.96 26.5 24.78 22.83 21.14 9.17 34.68"/><polygon class="cls-6" points="26.5 17.5 22.83 21.14 26.5 24.78 32.8 21.14 26.5 17.5"/></g></g><path class="cls-7" d="M95.17,26.43a3.42,3.42,0,0,1-1.41-.28,2.66,2.66,0,0,1-1.07-.87h-.08a11.38,11.38,0,0,1,.08,1.31v3.24H91.5V18.41h1l.17,1.08h0a2.74,2.74,0,0,1,1.07-.93,3.24,3.24,0,0,1,1.41-.29,2.91,2.91,0,0,1,2.41,1.07,4.71,4.71,0,0,1,.86,3,4.66,4.66,0,0,1-.87,3A2.93,2.93,0,0,1,95.17,26.43ZM95,19.28a2.12,2.12,0,0,0-1.74.67,3.49,3.49,0,0,0-.56,2.13v.27a3.94,3.94,0,0,0,.56,2.37,2.1,2.1,0,0,0,1.77.72,1.84,1.84,0,0,0,1.6-.83,3.89,3.89,0,0,0,.58-2.28,3.74,3.74,0,0,0-.58-2.26A1.91,1.91,0,0,0,95,19.28Z"/><path class="cls-7" d="M101.2,26.29H100V15.11h1.19Z"/><path class="cls-7" d="M108.06,26.29l-.24-1.12h-.06a3.32,3.32,0,0,1-1.17,1,3.47,3.47,0,0,1-1.46.26,2.67,2.67,0,0,1-1.84-.6,2.22,2.22,0,0,1-.67-1.72c0-1.59,1.28-2.42,3.82-2.5h1.34v-.49a2,2,0,0,0-.4-1.37,1.68,1.68,0,0,0-1.28-.44,5.22,5.22,0,0,0-2.22.6l-.37-.91a5.79,5.79,0,0,1,1.27-.5,5.54,5.54,0,0,1,1.4-.18,3,3,0,0,1,2.08.63,2.59,2.59,0,0,1,.68,2v5.38Zm-2.7-.84a2.4,2.4,0,0,0,1.75-.61,2.23,2.23,0,0,0,.64-1.71v-.71h-1.19a4.45,4.45,0,0,0-2.06.44,1.35,1.35,0,0,0-.62,1.22,1.22,1.22,0,0,0,.39,1A1.54,1.54,0,0,0,105.36,25.45Z"/><path class="cls-7" d="M109.64,18.41h1.27l1.73,4.5a15.47,15.47,0,0,1,.7,2.22h.06q.09-.37.39-1.26t1.95-5.46H117l-3.38,9a4.46,4.46,0,0,1-1.18,1.89,2.47,2.47,0,0,1-1.65.56,4.81,4.81,0,0,1-1.07-.12v-1a4.31,4.31,0,0,0,.88.09,1.82,1.82,0,0,0,1.75-1.38l.44-1.13Z"/><path class="cls-7" d="M73.06,19.15a2.68,2.68,0,0,1,.71,3.72,2.64,2.64,0,0,1-.92.84,1.14,1.14,0,0,0-.46.81.9.9,0,0,0,.43.71l.59.46A2.88,2.88,0,0,1,74.79,28c0,1.55-1.5,3.12-4.33,3.12-2.39,0-3.54-1.14-3.54-2.36a2.35,2.35,0,0,1,1.27-2A7.12,7.12,0,0,1,71.33,26a1.74,1.74,0,0,1-.49-1.12,1.59,1.59,0,0,1,.16-.64h-.52a2.62,2.62,0,0,1-2.74-2.48v-.1a3,3,0,0,1,1.06-2.21,4.44,4.44,0,0,1,3-.91h3.39l-1.06.6Zm-1.17,7.31a2.29,2.29,0,0,0-.37,0,6.86,6.86,0,0,0-1.74.27,1.84,1.84,0,0,0-1.41,1.7c0,1.17,1.13,2,2.9,2,1.58,0,2.42-.76,2.42-1.78C73.69,27.79,73.15,27.35,71.89,26.46Zm.48-3.13a1.65,1.65,0,0,0,.41-1.2c0-1.19-.71-3-2.07-3a1.56,1.56,0,0,0-1.16.54,1.89,1.89,0,0,0-.36,1.22c0,1.1.64,2.93,2.06,2.93A1.69,1.69,0,0,0,72.37,23.33Z"/><path class="cls-7" d="M62.69,26.2a3.89,3.89,0,0,1-4-3.76v-.12a4.07,4.07,0,0,1,4.16-4H63a3.84,3.84,0,0,1,3.93,3.75v.13a4,4,0,0,1-4,4Zm2.06-1.33A3,3,0,0,0,65.24,23c0-1.45-.69-4.21-2.73-4.21a2.25,2.25,0,0,0-1.48.56,2.5,2.5,0,0,0-.76,2c0,1.62.81,4.3,2.8,4.3A2.13,2.13,0,0,0,64.75,24.87Z"/><path class="cls-7" d="M53.77,26.2a3.89,3.89,0,0,1-4-3.76v-.12a4.07,4.07,0,0,1,4.16-4H54A3.84,3.84,0,0,1,58,22v.17a4,4,0,0,1-4,4Zm2.06-1.33A3,3,0,0,0,56.32,23c0-1.45-.69-4.21-2.73-4.21a2.25,2.25,0,0,0-1.48.56,2.49,2.49,0,0,0-.75,2c0,1.62.8,4.3,2.79,4.3A2.13,2.13,0,0,0,55.83,24.87Z"/><path class="cls-7" d="M48.5,25.94l-2.36.55a17.79,17.79,0,0,1-2.73.28,5.88,5.88,0,0,1-6.29-5.42c0-.19,0-.39,0-.58,0-3.21,2.46-6.19,6.68-6.19a9.78,9.78,0,0,1,2.53.35,6.35,6.35,0,0,1,2.18,1l-1.37,1.3-.58.14L47,16.7a4.76,4.76,0,0,0-3.54-1.55,4.58,4.58,0,0,0-4.6,4.54c0,.11,0,.23,0,.34a5.85,5.85,0,0,0,5.7,6h.16a4.9,4.9,0,0,0,2.1-.42V23l-2.5.13,1.32-.71h3.51l-.43.41a.42.42,0,0,0-.16.27v.79Z"/><path class="cls-7" d="M78.29,25.46c-.54-.05-.66-.14-.66-.79V15.2c.07-.58.23-.68.74-1H76l-1.24.59H76V25c0,.33-.06.38-.44.88h2.92l.62-.36A7.94,7.94,0,0,1,78.29,25.46Z"/><path class="cls-7" d="M85,25.62c-.18.09-.36.21-.54.29a3.76,3.76,0,0,1-1.59.31,3.5,3.5,0,0,1-2.19-.64A4.25,4.25,0,0,1,79,22.12a3.73,3.73,0,0,1,3.66-3.8h.1a3.14,3.14,0,0,1,1.69.46,2.78,2.78,0,0,1,1.15,1.63L81.77,22l-1.27.1c.41,2.08,1.83,3.3,3.39,3.3a4.18,4.18,0,0,0,2-.58Zm-1.54-4.9c.31-.11.47-.21.47-.44a1.64,1.64,0,0,0-1.62-1.42A2,2,0,0,0,80.4,21a1.5,1.5,0,0,0,0,.2V22Z"/><path class="cls-7" d="M86.61,18.44v1.08h-.14V18.44h-.35v-.12H87v.12Z"/><path class="cls-7" d="M88.08,19.52V18.43h0l-.34,1.09h-.1l-.34-1.09h0v1.09h-.12v-1.2h.21l.3,1h0l.3-1h.21v1.2Z"/><path class="cls-8" d="M40.39,11.37h-.82a5.79,5.79,0,0,0-.23-1H38.15a5.61,5.61,0,0,0-.24,1h-.77c0-.06.2-.61.6-1.64a12.7,12.7,0,0,0,.6-1.7h1a12.63,12.63,0,0,0,.54,1.68A15.91,15.91,0,0,1,40.39,11.37ZM39.21,9.92a11.81,11.81,0,0,1-.44-1.43h0c0,.07-.16.54-.46,1.43Z"/><path class="cls-8" d="M43.7,11.37h-.63a6.75,6.75,0,0,0-.71-1.11,6.16,6.16,0,0,1-.84-1.45h0a8.39,8.39,0,0,1,.06,1v1.54H41V8h.76a4.59,4.59,0,0,0,.64,1.09,6.35,6.35,0,0,1,.77,1.37h0a8.39,8.39,0,0,1-.06-1V8h.64v1.6C43.75,10.23,43.68,10.85,43.7,11.37Z"/><path class="cls-8" d="M47.43,9.59A1.9,1.9,0,0,1,47,10.86a1.62,1.62,0,0,1-1.31.54h-1V8.06h1.06A1.73,1.73,0,0,1,47,8.48,1.63,1.63,0,0,1,47.43,9.59Zm-.7.11a1.21,1.21,0,0,0-.29-.83,1.08,1.08,0,0,0-.88-.34h-.3v2.29h.33a1,1,0,0,0,.82-.35A1.27,1.27,0,0,0,46.73,9.7Z"/><path class="cls-8" d="M50.86,11.37H50.1a5,5,0,0,0-.46-1.12.6.6,0,0,0-.51-.21h-.29v1.33h-.72V8h1.22c.79,0,1.18.27,1.18.81a.9.9,0,0,1-.67.89h0a.79.79,0,0,1,.45.41A8,8,0,0,1,50.86,11.37ZM49.9,9q0-.51-.66-.51a1.55,1.55,0,0,0-.43,0v1h.24C49.62,9.58,49.9,9.39,49.9,9Z"/><path class="cls-8" d="M54.54,9.64A1.84,1.84,0,0,1,54.06,11a1.57,1.57,0,0,1-1.2.52A1.49,1.49,0,0,1,51.73,11a1.64,1.64,0,0,1-.46-1.21,1.87,1.87,0,0,1,.48-1.31A1.58,1.58,0,0,1,53,8a1.5,1.5,0,0,1,1.13.48A1.66,1.66,0,0,1,54.54,9.64Zm-.71.08a1.37,1.37,0,0,0-.27-.88.85.85,0,0,0-.68-.33.77.77,0,0,0-.64.34A1.36,1.36,0,0,0,52,9.7a1.37,1.37,0,0,0,.28.87.84.84,0,0,0,.67.33.77.77,0,0,0,.64-.34A1.33,1.33,0,0,0,53.83,9.72Z"/><path class="cls-8" d="M56,11.37h-.72V8H56v3.34Z"/><path class="cls-8" d="M59.71,9.59a1.89,1.89,0,0,1-.46,1.27,1.62,1.62,0,0,1-1.31.54h-1V8.06H58a1.76,1.76,0,0,1,1.35.47A1.62,1.62,0,0,1,59.71,9.59ZM59,9.7a1.25,1.25,0,0,0-.28-.83,1.12,1.12,0,0,0-.88-.34h-.31v2.29h.33a1,1,0,0,0,.82-.35A1.27,1.27,0,0,0,59,9.7Z"/><path class="cls-8" d="M64.65,11.37h-.82a5.79,5.79,0,0,0-.23-1H62.41a5.61,5.61,0,0,0-.24,1H61.4c0-.06.2-.61.6-1.64A13.1,13.1,0,0,0,62.6,8h1a12.63,12.63,0,0,0,.54,1.68A16.44,16.44,0,0,1,64.65,11.37ZM63.47,9.92A12,12,0,0,1,63,8.49h0a14.86,14.86,0,0,1-.46,1.43Z"/><path class="cls-8" d="M67.65,8.91a1,1,0,0,1-.46.9,2,2,0,0,1-1.12.3H65.9v1.27h-.72V8h1.28a1.4,1.4,0,0,1,.82.23A.74.74,0,0,1,67.65,8.91ZM67,9.05c0-.37-.25-.55-.73-.55h-.39V9.6H66C66.67,9.64,67,9.44,67,9.05Z"/><path class="cls-8" d="M70.73,8.91a1,1,0,0,1-.46.9,2,2,0,0,1-1.12.3H69v1.27h-.72V8h1.28a1.4,1.4,0,0,1,.82.23A.73.73,0,0,1,70.73,8.91Zm-.66.14c0-.37-.25-.55-.73-.55H69V9.6h.15C69.75,9.64,70.07,9.44,70.07,9.05Z"/><path class="cls-8" d="M75.77,9.64A1.85,1.85,0,0,1,75.28,11a1.55,1.55,0,0,1-1.19.52A1.53,1.53,0,0,1,73,11a1.69,1.69,0,0,1-.45-1.21A1.82,1.82,0,0,1,73,8.47,1.6,1.6,0,0,1,74.17,8a1.54,1.54,0,0,1,1.14.48A1.71,1.71,0,0,1,75.77,9.64Zm-.71.08a1.38,1.38,0,0,0-.28-.88.85.85,0,0,0-.68-.33.77.77,0,0,0-.63.34,1.29,1.29,0,0,0-.27.85,1.37,1.37,0,0,0,.28.87.85.85,0,0,0,.68.33.77.77,0,0,0,.63-.34A1.28,1.28,0,0,0,75.06,9.72Z"/><path class="cls-8" d="M79.25,11.37h-.64a6.1,6.1,0,0,0-.7-1.11,6.2,6.2,0,0,1-.85-1.45h0c0,.33.06.67.07,1v1.54H76.5V8h.76A4.59,4.59,0,0,0,77.9,9.1a5.6,5.6,0,0,1,.77,1.37h0a8.39,8.39,0,0,1-.06-1V8h.65v1.6C79.26,10.24,79.22,10.85,79.25,11.37Z"/></svg>