<?xml version="1.0" encoding="utf-8"?>
<!-- Generator: Adobe Illustrator 25.0.0, SVG Export Plug-In . SVG Version: 6.00 Build 0)  -->
<svg version="1.1" id="Layer_1" xmlns="http://www.w3.org/2000/svg" xmlns:xlink="http://www.w3.org/1999/xlink" x="0px" y="0px"
	 viewBox="0 0 122.3 40" style="enable-background:new 0 0 122.3 40;" xml:space="preserve">
<style type="text/css">
	.st0{fill:#A7A9AC;}
	.st1{clip-path:url(#SVGID_2_);}
	.st2{fill:url(#SVGID_3_);}
	.st3{fill:url(#SVGID_4_);}
	.st4{fill:url(#SVGID_5_);}
	.st5{fill:url(#SVGID_6_);}
	.st6{fill:#F9F9F9;}
	.st7{fill:#F9F9FA;}
</style>
<path class="st0" d="M5.4,0h111.5c3,0,5.4,2.4,5.4,5.4v29.2c0,3-2.4,5.4-5.4,5.4H5.4c-3,0-5.4-2.4-5.4-5.4c0,0,0,0,0,0V5.4
	C0,2.4,2.4,0,5.4,0z"/>
<g id="PLAY">
	<g>
		<defs>
			<path id="SVGID_1_" d="M26.5,17.5L21,14.3L10.4,8.2C9.8,7.8,9.2,8,9.2,8.8v25c0,0.5,0.4,0.8,0.9,0.5L21,28l5.5-3.2l5.3-3.1
				c0.6-0.4,0.6-0.9,0-1.1S26.5,17.5,26.5,17.5z"/>
		</defs>
		<clipPath id="SVGID_2_">
			<use xlink:href="#SVGID_1_"  style="overflow:visible;"/>
		</clipPath>
		<g class="st1">
			
				<linearGradient id="SVGID_3_" gradientUnits="userSpaceOnUse" x1="16" y1="34.4" x2="16" y2="7.32" gradientTransform="matrix(1 0 0 -1 0 42)">
				<stop  offset="0" style="stop-color:#257CB0"/>
				<stop  offset="0.21" style="stop-color:#3C8FB3"/>
				<stop  offset="0.74" style="stop-color:#73BDBA"/>
				<stop  offset="1" style="stop-color:#89CFBD"/>
			</linearGradient>
			<polygon class="st2" points="9.2,7.6 9.2,21.1 9.2,34.7 22.8,21.1 			"/>
			
				<linearGradient id="SVGID_4_" gradientUnits="userSpaceOnUse" x1="9.17" y1="27.68" x2="26.5" y2="27.68" gradientTransform="matrix(1 0 0 -1 0 42)">
				<stop  offset="0" style="stop-color:#52C1AD"/>
				<stop  offset="1" style="stop-color:#DEE89A"/>
			</linearGradient>
			<polygon class="st3" points="26.5,17.5 21,14.3 9.2,7.5 9.2,7.6 22.8,21.1 			"/>
			
				<linearGradient id="SVGID_5_" gradientUnits="userSpaceOnUse" x1="17.835" y1="20.86" x2="17.835" y2="7.22" gradientTransform="matrix(1 0 0 -1 0 42)">
				<stop  offset="0" style="stop-color:#EC413D"/>
				<stop  offset="0.19" style="stop-color:#D74352"/>
				<stop  offset="0.74" style="stop-color:#A04888"/>
				<stop  offset="1" style="stop-color:#8A4A9D"/>
			</linearGradient>
			<polygon class="st4" points="9.2,34.7 9.2,34.8 21,28 26.5,24.8 22.8,21.1 			"/>
			
				<linearGradient id="SVGID_6_" gradientUnits="userSpaceOnUse" x1="27.815" y1="24.5" x2="27.815" y2="17.22" gradientTransform="matrix(1 0 0 -1 0 42)">
				<stop  offset="0" style="stop-color:#F58879"/>
				<stop  offset="0.62" style="stop-color:#FBB276"/>
				<stop  offset="1" style="stop-color:#FEC874"/>
			</linearGradient>
			<polygon class="st5" points="26.5,17.5 22.8,21.1 26.5,24.8 32.8,21.1 			"/>
		</g>
	</g>
</g>
<path class="st6" d="M95.2,26.4c-0.5,0-1-0.1-1.4-0.3c-0.4-0.2-0.8-0.5-1.1-0.9h-0.1c0.1,0.4,0.1,0.9,0.1,1.3v3.2h-1.2V18.4h1
	l0.2,1.1l0,0c0.3-0.4,0.6-0.7,1.1-0.9c0.4-0.2,0.9-0.3,1.4-0.3c0.9-0.1,1.8,0.3,2.4,1.1c0.6,0.9,0.9,1.9,0.9,3
	c0.1,1.1-0.2,2.1-0.9,3C97,26.1,96.1,26.5,95.2,26.4z M95,19.3c-0.7-0.1-1.3,0.2-1.7,0.7c-0.4,0.6-0.6,1.4-0.6,2.1v0.3
	c-0.1,0.8,0.1,1.7,0.6,2.4c0.4,0.5,1.1,0.8,1.8,0.7c0.6,0,1.2-0.3,1.6-0.8c0.4-0.7,0.6-1.5,0.6-2.3c0.1-0.8-0.2-1.6-0.6-2.3
	C96.3,19.5,95.6,19.3,95,19.3z"/>
<path class="st6" d="M101.2,26.3H100V15.1h1.2L101.2,26.3z"/>
<path class="st6" d="M108.1,26.3l-0.2-1.1h-0.1c-0.3,0.4-0.7,0.8-1.2,1c-0.5,0.2-1,0.3-1.5,0.3c-0.7,0-1.3-0.2-1.8-0.6
	c-0.5-0.4-0.7-1.1-0.7-1.7c0-1.6,1.3-2.4,3.8-2.5h1.3v-0.5c0-0.5-0.1-1-0.4-1.4c-0.3-0.3-0.8-0.5-1.3-0.4c-0.8,0-1.5,0.2-2.2,0.6
	l-0.4-0.9c0.4-0.2,0.8-0.4,1.3-0.5c0.5-0.1,0.9-0.2,1.4-0.2c0.7-0.1,1.5,0.2,2.1,0.6c0.5,0.5,0.7,1.3,0.7,2v5.4L108.1,26.3z
	 M105.4,25.5c0.6,0,1.3-0.2,1.8-0.6c0.4-0.5,0.7-1.1,0.6-1.7v-0.7h-1.2c-0.7,0-1.4,0.1-2.1,0.4c-0.4,0.3-0.7,0.7-0.6,1.2
	c0,0.4,0.1,0.7,0.4,1C104.6,25.3,105,25.5,105.4,25.5z"/>
<path class="st6" d="M109.6,18.4h1.3l1.7,4.5c0.3,0.7,0.5,1.5,0.7,2.2h0.1c0.1-0.2,0.2-0.7,0.4-1.3c0.2-0.6,0.8-2.4,1.9-5.5h1.3
	l-3.4,9c-0.2,0.7-0.6,1.4-1.2,1.9c-0.5,0.4-1.1,0.6-1.7,0.6c-0.4,0-0.7,0-1.1-0.1v-1c0.3,0.1,0.6,0.1,0.9,0.1c0.8,0,1.5-0.6,1.8-1.4
	l0.4-1.1L109.6,18.4z"/>
<path class="st6" d="M73.1,19.1c1.2,0.8,1.5,2.5,0.7,3.7c-0.2,0.3-0.6,0.6-0.9,0.8c-0.3,0.2-0.4,0.5-0.5,0.8c0,0.3,0.2,0.6,0.4,0.7
	l0.6,0.5c0.8,0.5,1.3,1.4,1.4,2.3c0,1.5-1.5,3.1-4.3,3.1c-2.4,0-3.5-1.1-3.5-2.4c0-0.8,0.5-1.6,1.3-2c1-0.5,2-0.8,3.1-0.8
	c-0.3-0.3-0.5-0.7-0.5-1.1c0-0.2,0.1-0.4,0.2-0.6h-0.5c-1.4,0.1-2.7-1-2.7-2.5c0,0,0-0.1,0-0.1c0-0.9,0.4-1.7,1.1-2.2
	c0.9-0.7,1.9-1,3-0.9h3.4l-1.1,0.6L73.1,19.1z M71.9,26.5c-0.1,0-0.2,0-0.4,0c-0.6,0-1.2,0.1-1.7,0.3c-0.8,0.2-1.4,0.9-1.4,1.7
	c0,1.2,1.1,2,2.9,2c1.6,0,2.4-0.8,2.4-1.8C73.7,27.8,73.2,27.4,71.9,26.5z M72.4,23.3c0.3-0.3,0.4-0.8,0.4-1.2c0-1.2-0.7-3-2.1-3
	c-0.4,0-0.9,0.2-1.2,0.5c-0.3,0.4-0.4,0.8-0.4,1.2c0,1.1,0.6,2.9,2.1,2.9C71.7,23.8,72.1,23.6,72.4,23.3z"/>
<path class="st6" d="M62.7,26.2c-2.1,0.1-3.9-1.6-4-3.8c0,0,0-0.1,0-0.1c0-2.3,1.9-4,4.2-4c0,0,0.1,0,0.1,0c2.1,0,3.9,1.6,3.9,3.7
	c0,0,0,0.1,0,0.1c0,2.2-1.8,4-4,4C62.8,26.2,62.8,26.2,62.7,26.2z M64.8,24.9c0.4-0.6,0.5-1.2,0.5-1.9c0-1.5-0.7-4.2-2.7-4.2
	c-0.5,0-1.1,0.2-1.5,0.6c-0.5,0.5-0.8,1.3-0.8,2c0,1.6,0.8,4.3,2.8,4.3C63.7,25.7,64.3,25.4,64.8,24.9z"/>
<path class="st6" d="M53.8,26.2c-2.1,0.1-3.9-1.6-4-3.8c0,0,0-0.1,0-0.1c0-2.3,1.9-4,4.2-4c0,0,0.1,0,0.1,0c2.1-0.1,3.9,1.6,4,3.7
	c0,0.1,0,0.1,0,0.2c0,2.2-1.8,4-4,4C53.9,26.2,53.8,26.2,53.8,26.2z M55.8,24.9c0.4-0.6,0.5-1.2,0.5-1.9c0-1.5-0.7-4.2-2.7-4.2
	c-0.5,0-1.1,0.2-1.5,0.6c-0.5,0.5-0.8,1.3-0.8,2c0,1.6,0.8,4.3,2.8,4.3C54.8,25.7,55.4,25.4,55.8,24.9z"/>
<path class="st6" d="M48.5,25.9l-2.4,0.5c-0.9,0.2-1.8,0.3-2.7,0.3c-3.2,0.2-6-2.2-6.3-5.4c0-0.2,0-0.4,0-0.6c0-3.2,2.5-6.2,6.7-6.2
	c0.9,0,1.7,0.1,2.5,0.4c0.8,0.2,1.5,0.5,2.2,1l-1.4,1.3l-0.6,0.1l0.4-0.7c-0.9-1-2.2-1.6-3.5-1.6c-2.5,0-4.6,2-4.6,4.5
	c0,0.1,0,0.2,0,0.3c-0.1,3.2,2.5,5.9,5.7,6c0.1,0,0.1,0,0.2,0c0.7,0,1.4-0.1,2.1-0.4V23l-2.5,0.1l1.3-0.7h3.5l-0.4,0.4
	c-0.1,0.1-0.1,0.2-0.2,0.3c0,0.1,0,0.6,0,0.8L48.5,25.9z"/>
<path class="st6" d="M78.3,25.5c-0.5,0-0.7-0.1-0.7-0.8v-9.4c0,0,0-0.1,0-0.1c0.1-0.6,0.2-0.7,0.7-1H76l-1.2,0.6H76V25
	c0,0.3-0.1,0.4-0.4,0.9h2.9l0.6-0.4C78.8,25.5,78.6,25.5,78.3,25.5z"/>
<path class="st6" d="M85,25.6c-0.2,0.1-0.4,0.2-0.5,0.3c-0.5,0.2-1,0.3-1.6,0.3c-0.8,0-1.6-0.2-2.2-0.6c-1.1-0.8-1.7-2.1-1.7-3.5
	c0-2.1,1.6-3.8,3.7-3.8c0,0,0.1,0,0.1,0c0.6,0,1.2,0.2,1.7,0.5c0.6,0.4,1,1,1.2,1.6L81.8,22l-1.3,0.1c0.4,2.1,1.8,3.3,3.4,3.3
	c0.7,0,1.4-0.2,2-0.6L85,25.6z M83.5,20.7c0.3-0.1,0.5-0.2,0.5-0.4c-0.1-0.8-0.8-1.4-1.6-1.4c-1.1,0-2,1-1.9,2.1c0,0.1,0,0.1,0,0.2
	c0,0.3,0,0.6,0,0.9L83.5,20.7z"/>
<path class="st6" d="M86.6,18.4v1.1h-0.1v-1.1h-0.3v-0.1H87v0.1H86.6z"/>
<path class="st6" d="M88.1,19.5v-1.1l0,0l-0.3,1.1h-0.1l-0.3-1.1l0,0v1.1h-0.1v-1.2h0.2l0.3,1l0,0l0.3-1h0.2v1.2H88.1z"/>
<path class="st7" d="M40.4,11.4h-0.8c0-0.3-0.1-0.7-0.2-1h-1.2c-0.1,0.3-0.2,0.7-0.2,1h-0.8c0-0.1,0.2-0.6,0.6-1.6
	C38,9.2,38.2,8.6,38.3,8h1c0.1,0.6,0.3,1.1,0.5,1.7C40.1,10.3,40.3,10.8,40.4,11.4z M39.2,9.9C39,9.5,38.9,9,38.8,8.5l0,0
	c0,0.1-0.2,0.5-0.5,1.4H39.2z"/>
<path class="st7" d="M43.7,11.4h-0.6c-0.2-0.4-0.4-0.8-0.7-1.1c-0.3-0.4-0.6-0.9-0.8-1.4l0,0c0,0.3,0.1,0.7,0.1,1c0,0.4,0,0.9,0,1.5
	H41c0-0.5,0-1.1,0-1.7s0-1.1,0-1.6h0.8c0.2,0.4,0.4,0.8,0.6,1.1c0.3,0.4,0.6,0.9,0.8,1.4l0,0c0-0.3-0.1-0.7-0.1-1c0-0.5,0-0.9,0-1.4
	h0.6c0,0.4,0,1,0,1.6S43.7,10.9,43.7,11.4z"/>
<path class="st7" d="M47.4,9.6c0,0.5-0.1,0.9-0.4,1.3c-0.3,0.4-0.8,0.6-1.3,0.5h-1c0-0.5,0-1.1,0-1.7s0-1.2,0-1.6h1.1
	c0.5,0,0.9,0.1,1.2,0.4C47.3,8.8,47.4,9.2,47.4,9.6z M46.7,9.7c0-0.3-0.1-0.6-0.3-0.8c-0.2-0.2-0.6-0.4-0.9-0.3h-0.3
	c0,0.3,0,0.7,0,1.1s0,0.8,0,1.2c0.1,0,0.2,0,0.3,0c0.3,0,0.6-0.1,0.8-0.4C46.6,10.3,46.7,10,46.7,9.7z"/>
<path class="st7" d="M50.9,11.4h-0.8c-0.1-0.4-0.3-0.8-0.5-1.1c-0.1-0.1-0.3-0.2-0.5-0.2h-0.3c0,0.4,0,0.9,0,1.3h-0.7
	c0-0.5,0-1.1,0-1.7s0-1.2,0-1.6h1.2c0.8,0,1.2,0.3,1.2,0.8c0,0.4-0.3,0.8-0.7,0.9l0,0c0.2,0.1,0.4,0.2,0.5,0.4
	C50.5,10.5,50.7,10.9,50.9,11.4z M49.9,9c0-0.3-0.2-0.5-0.7-0.5c-0.1,0-0.3,0-0.4,0c0,0.3,0,0.6,0,1h0.2C49.6,9.6,49.9,9.4,49.9,9z"
	/>
<path class="st7" d="M54.5,9.6c0,0.5-0.1,1-0.5,1.4c-0.3,0.3-0.7,0.5-1.2,0.5c-0.4,0-0.8-0.2-1.1-0.5c-0.3-0.3-0.5-0.8-0.5-1.2
	c0-0.5,0.2-1,0.5-1.3C52.1,8.1,52.5,8,53,8c0.4,0,0.8,0.2,1.1,0.5C54.4,8.8,54.6,9.2,54.5,9.6z M53.8,9.7c0-0.3-0.1-0.6-0.3-0.9
	c-0.2-0.2-0.4-0.3-0.7-0.3c-0.3,0-0.5,0.1-0.6,0.3C52.1,9.1,52,9.4,52,9.7c0,0.3,0.1,0.6,0.3,0.9c0.2,0.2,0.4,0.3,0.7,0.3
	c0.3,0,0.5-0.1,0.6-0.3C53.8,10.3,53.8,10,53.8,9.7z"/>
<path class="st7" d="M56,11.4h-0.7c0-0.5,0-1.1,0-1.7c0-0.6,0-1.2,0-1.6H56c0,0.4,0,1,0,1.6S56,10.9,56,11.4z"/>
<path class="st7" d="M59.7,9.6c0,0.5-0.2,0.9-0.5,1.3c-0.3,0.4-0.8,0.6-1.3,0.5h-1c0-0.5,0-1.1,0-1.7s0-1.2,0-1.6H58
	c0.5,0,1,0.1,1.3,0.5C59.6,8.8,59.7,9.2,59.7,9.6z M59,9.7c0-0.3-0.1-0.6-0.3-0.8c-0.2-0.2-0.6-0.4-0.9-0.3h-0.3c0,0.3,0,0.7,0,1.1
	c0,0.4,0,0.8,0,1.2c0.1,0,0.2,0,0.3,0c0.3,0,0.6-0.1,0.8-0.4C58.9,10.3,59,10,59,9.7z"/>
<path class="st7" d="M64.7,11.4h-0.8c0-0.3-0.1-0.7-0.2-1h-1.2c-0.1,0.3-0.2,0.7-0.2,1h-0.8c0-0.1,0.2-0.6,0.6-1.6
	c0.2-0.6,0.4-1.1,0.6-1.7h1c0.1,0.6,0.3,1.1,0.5,1.7C64.3,10.2,64.5,10.8,64.7,11.4z M63.5,9.9C63.3,9.5,63.1,9,63,8.5l0,0
	c-0.1,0.5-0.3,1-0.5,1.4H63.5z"/>
<path class="st7" d="M67.7,8.9c0,0.4-0.2,0.7-0.5,0.9c-0.3,0.2-0.7,0.3-1.1,0.3h-0.2c0,0.3,0,0.8,0,1.3h-0.7c0-0.5,0-1.1,0-1.7
	c0-0.6,0-1.1,0-1.6h1.3c0.3,0,0.6,0.1,0.8,0.2C67.5,8.4,67.7,8.6,67.7,8.9z M67,9.1c0-0.4-0.2-0.6-0.7-0.6c-0.1,0-0.3,0-0.4,0
	c0,0.3,0,0.7,0,1.1H66C66.7,9.6,67,9.4,67,9.1z"/>
<path class="st7" d="M70.7,8.9c0,0.4-0.2,0.7-0.5,0.9c-0.3,0.2-0.7,0.3-1.1,0.3H69c0,0.3,0,0.8,0,1.3h-0.7c0-0.5,0-1.1,0-1.7
	c0-0.6,0-1.1,0-1.6h1.3c0.3,0,0.6,0.1,0.8,0.2C70.6,8.4,70.7,8.6,70.7,8.9z M70.1,9.1c0-0.4-0.2-0.6-0.7-0.6c-0.1,0-0.3,0-0.4,0
	c0,0.3,0,0.7,0,1.1h0.2C69.8,9.6,70.1,9.4,70.1,9.1z"/>
<path class="st7" d="M75.8,9.6c0,0.5-0.1,1-0.5,1.4c-0.3,0.3-0.7,0.5-1.2,0.5c-0.4,0-0.8-0.2-1.1-0.5c-0.3-0.3-0.5-0.8-0.4-1.2
	c0-0.5,0.1-1,0.4-1.3C73.3,8.2,73.7,8,74.2,8c0.4,0,0.8,0.2,1.1,0.5C75.6,8.8,75.8,9.2,75.8,9.6z M75.1,9.7c0-0.3-0.1-0.6-0.3-0.9
	c-0.2-0.2-0.4-0.3-0.7-0.3c-0.3,0-0.5,0.1-0.6,0.3c-0.2,0.2-0.3,0.5-0.3,0.9c0,0.3,0.1,0.6,0.3,0.9c0.2,0.2,0.4,0.3,0.7,0.3
	c0.3,0,0.5-0.1,0.6-0.3C75,10.3,75.1,10,75.1,9.7z"/>
<path class="st7" d="M79.2,11.4h-0.6c-0.2-0.4-0.4-0.8-0.7-1.1c-0.3-0.4-0.6-0.9-0.8-1.4l0,0c0,0.3,0.1,0.7,0.1,1c0,0.4,0,0.9,0,1.5
	h-0.6c0-0.5,0-1.1,0-1.7s0-1.2,0-1.6h0.8c0.2,0.4,0.4,0.8,0.6,1.1c0.3,0.4,0.6,0.9,0.8,1.4l0,0c0-0.3-0.1-0.7-0.1-1
	c0-0.5,0-0.9,0-1.4h0.7c0,0.4,0,1,0,1.6S79.2,10.9,79.2,11.4z"/>
</svg>
